<svg width="76" height="72" viewBox="0 0 76 72" fill="none" xmlns="http://www.w3.org/2000/svg">
<path d="M66.7 15.7368C68.817 15.7368 70.5325 16.4737 71.883 17.9105C73.27 19.4211 74 21.0789 74 23.1053V63.6316C74 65.6579 73.27 67.3158 71.883 68.8263C70.5325 70.2632 68.817 71 66.7 71H8.3C6.183 71 4.4675 70.2632 3.117 68.8263C1.73 67.3158 1 65.6579 1 63.6316V23.1053C1 21.0789 1.73 19.4211 3.117 17.9105C4.4675 16.4737 6.183 15.7368 8.3 15.7368H22.9V8.36842C22.9 6.23158 23.63 4.5 25.017 3.13684C26.3675 1.73684 28.083 1 30.2 1H44.8C46.917 1 48.6325 1.73684 49.983 3.13684C51.37 4.5 52.1 6.23158 52.1 8.36842V15.7368H66.7ZM6.3 21.1053V65.6316H68.7V21.1053H6.3ZM44.8 15.7368V8.36842H30.2V15.7368H44.8Z" fill="#9882AC"/>
<g clip-path="url(#clip0_366_320)">
<path d="M24.9639 29.9639V55.0353H50.0353" stroke="#9882AC" stroke-width="3.14286" stroke-linecap="round" stroke-linejoin="round"/>
<path d="M38.4639 55.0353C38.4639 51.4549 37.0416 48.0211 34.5098 45.4894C31.9781 42.9576 28.5443 41.5353 24.9639 41.5353M24.9639 55.0353L29.7853 50.2139M34.6067 45.3924L37.4996 42.4996M41.3567 38.6424L44.2496 35.7496M48.1067 31.8924L50.0353 29.9639" stroke="#9882AC" stroke-width="3.14286" stroke-linecap="round" stroke-linejoin="round"/>
</g>
<defs>
<clipPath id="clip0_366_320">
<rect width="27" height="27" fill="white" transform="translate(24 29)"/>
</clipPath>
</defs>
</svg>
