<svg width="26" height="30" viewBox="0 0 26 30" fill="none" xmlns="http://www.w3.org/2000/svg">
<path d="M12.4389 25.1163C12.6032 26.1209 12.9453 27.0558 13.4242 27.907H2.73684C1.21789 27.907 0 26.6651 0 25.1163V2.7907C0 2.05056 0.288345 1.34073 0.801602 0.817376C1.31486 0.294019 2.01099 0 2.73684 0H13.6842L21.8947 8.37209V15.4744C21.4432 15.4047 20.9916 15.3488 20.5263 15.3488C20.0611 15.3488 19.6095 15.4047 19.1579 15.4744V9.76744H12.3158V2.7907H2.73684V25.1163H12.4389ZM26 20.9302L21.8947 17.4419V19.5349H16.4211V22.3256H21.8947V24.4186L26 20.9302ZM19.1579 23.0233L15.0526 26.5116L19.1579 30V27.907H24.6316V25.1163H19.1579V23.0233Z" fill="#9882AC"/>
</svg>
