<svg width="50" height="51" viewBox="0 0 50 51" fill="none" xmlns="http://www.w3.org/2000/svg">
<path d="M25.4847 30.3918V21.0918H49.3622C49.7194 22.6668 50 24.1418 50 26.2168C50 40.4918 40.2296 50.6418 25.5102 50.6418C11.4286 50.6418 0 39.4418 0 25.6418C0 11.8418 11.4286 0.641846 25.5102 0.641846C32.398 0.641846 38.1633 3.11685 42.5765 7.16685L35.3316 14.0668C33.4949 12.3668 30.2806 10.3668 25.5102 10.3668C17.0663 10.3668 10.1786 17.2418 10.1786 25.6668C10.1786 34.0918 17.0663 40.9668 25.5102 40.9668C35.2806 40.9668 38.8776 34.3418 39.5408 30.4168H25.4847V30.3918Z" fill="#9882AC"/>
</svg>
