<svg width="67" height="67" viewBox="0 0 67 67" fill="none" xmlns="http://www.w3.org/2000/svg">
<g clip-path="url(#clip0_70_387)">
<path d="M52.1103 22.5195C51.7616 22.1728 51.2899 21.9783 50.7982 21.9783C50.3066 21.9783 49.8349 22.1728 49.4861 22.5195L28.8278 43.0847L17.6611 31.9181C17.3206 31.5504 16.8479 31.333 16.347 31.3138C15.8461 31.2946 15.3582 31.4751 14.9905 31.8157C14.6227 32.1563 14.4054 32.629 14.3862 33.1299C14.367 33.6307 14.5475 34.1187 14.8881 34.4864L28.8278 48.3889L52.1103 25.1622C52.2848 24.9892 52.4232 24.7834 52.5177 24.5566C52.6122 24.3298 52.6608 24.0865 52.6608 23.8409C52.6608 23.5952 52.6122 23.3519 52.5177 23.1251C52.4232 22.8983 52.2848 22.6925 52.1103 22.5195Z" fill="#AEC670"/>
<circle cx="33.5" cy="33.5" r="32.5" stroke="#AEC670" stroke-width="2"/>
</g>
<defs>
<clipPath id="clip0_70_387">
<rect width="67" height="67" fill="white"/>
</clipPath>
</defs>
</svg>
