<svg width="36" height="42" viewBox="0 0 36 42" fill="none" xmlns="http://www.w3.org/2000/svg">
<path d="M29.5512 5.46936C29.3905 5.46976 29.2326 5.42702 29.094 5.34561C25.2801 3.30373 21.9827 2.43748 18.0296 2.43748C14.0962 2.43748 10.3614 3.40686 6.96428 5.34561C6.48389 5.61717 5.89178 5.42811 5.61334 4.92967C5.48906 4.68909 5.46102 4.41023 5.53493 4.14973C5.60883 3.88923 5.77913 3.66664 6.01123 3.52717C9.67507 1.44918 13.8175 0.362693 18.0296 0.374981C22.2603 0.374981 25.9556 1.34436 30.0084 3.50998C30.2449 3.63999 30.4209 3.8575 30.4989 4.11585C30.5768 4.37419 30.5504 4.65278 30.4252 4.89186C30.35 5.06159 30.2277 5.20621 30.0728 5.30856C29.9179 5.41091 29.7369 5.46671 29.5512 5.46936ZM1.12397 16.2975C0.917563 16.296 0.716583 16.2312 0.548187 16.1119C0.329096 15.949 0.18175 15.7075 0.137186 15.4382C0.0926221 15.1689 0.154319 14.8928 0.309281 14.6681C2.27639 11.7806 4.77803 9.51186 7.7592 7.92373C13.9965 4.58592 21.9827 4.56186 28.2398 7.90311C31.2201 9.49123 33.7226 11.7394 35.6898 14.6062C35.8441 14.8312 35.9054 15.1071 35.8609 15.3762C35.8163 15.6453 35.6694 15.8868 35.4508 16.05C35.3448 16.1292 35.2236 16.1859 35.0948 16.2164C34.966 16.247 34.8323 16.2508 34.702 16.2276C34.5716 16.2044 34.4474 16.1547 34.3371 16.0816C34.2267 16.0084 34.1326 15.9135 34.0604 15.8025C32.2729 13.2037 30.0084 11.1619 27.3263 9.73873C21.6252 6.70686 14.3343 6.70686 8.65295 9.75936C5.95108 11.2031 3.68662 13.2656 1.89912 15.8609C1.82205 15.9975 1.70907 16.1104 1.57243 16.1873C1.4358 16.2643 1.28071 16.3024 1.12397 16.2975ZM13.5394 41.1953C13.4081 41.1966 13.2781 41.1696 13.1581 41.1162C13.0381 41.0628 12.9311 40.9843 12.8441 40.8859C11.1159 39.0881 10.1792 37.9297 8.85147 35.4375C7.47647 32.9006 6.76576 29.8069 6.76576 26.4862C6.76576 20.3606 11.8112 15.3694 18.0098 15.3694C24.2085 15.3694 29.2573 20.3606 29.2573 26.4862C29.2612 26.6191 29.2384 26.7514 29.1903 26.8753C29.1422 26.9992 29.0696 27.1121 28.977 27.2075C28.8844 27.3029 28.7737 27.3787 28.6512 27.4304C28.5288 27.4822 28.3972 27.5089 28.2643 27.5089C28.1314 27.5089 27.9998 27.4822 27.8774 27.4304C27.755 27.3787 27.6442 27.3029 27.5516 27.2075C27.459 27.1121 27.3865 26.9992 27.3383 26.8753C27.2902 26.7514 27.2674 26.6191 27.2713 26.4862C27.2713 21.495 23.1188 17.4319 18.0141 17.4319C12.9094 17.4319 8.75264 21.495 8.75264 26.4862C8.75264 29.4562 9.38772 32.1994 10.5994 34.4269C11.8713 36.7987 12.7479 37.8094 14.275 39.4181C14.4561 39.6183 14.5564 39.8786 14.5564 40.1486C14.5564 40.4185 14.4561 40.6789 14.275 40.879C14.08 41.0758 13.8163 41.1892 13.5394 41.1953ZM27.7835 37.3797C25.4194 37.3797 23.3337 36.7609 21.6252 35.544C20.1697 34.5238 18.9806 33.1688 18.158 31.5931C17.3355 30.0174 16.9036 28.2671 16.8987 26.4897C16.8931 26.3557 16.9147 26.222 16.9621 26.0967C17.0095 25.9713 17.0818 25.8568 17.1746 25.76C17.2674 25.6633 17.3788 25.5863 17.5021 25.5337C17.6254 25.4811 17.758 25.454 17.8921 25.454C18.0261 25.454 18.1588 25.4811 18.2821 25.5337C18.4054 25.5863 18.5168 25.6633 18.6096 25.76C18.7024 25.8568 18.7747 25.9713 18.8221 26.0967C18.8695 26.222 18.8911 26.3557 18.8855 26.4897C18.8889 27.9334 19.241 29.355 19.9119 30.6334C20.5828 31.9118 21.5527 33.0092 22.739 33.8322C24.1492 34.8222 25.7983 35.2931 27.7852 35.2931C28.4772 35.2808 29.167 35.2118 29.8477 35.0869C30.384 34.9837 30.9005 35.355 30.9993 35.9325C31.0496 36.199 30.9922 36.4746 30.8397 36.6989C30.6871 36.9231 30.4518 37.0777 30.1855 37.1287C29.3941 37.2851 28.5901 37.3679 27.7835 37.3762V37.3797ZM23.79 41.625C23.7027 41.6214 23.6162 41.6075 23.5322 41.5837C20.3731 40.6762 18.3072 39.4594 16.1415 37.2525C13.3598 34.3856 11.8309 30.57 11.8309 26.4862C11.8309 23.145 14.5723 20.4225 17.9488 20.4225C21.3253 20.4225 24.0676 23.145 24.0676 26.4862C24.0676 28.6931 25.9152 30.4875 28.1994 30.4875C30.4837 30.4875 32.3313 28.6931 32.3313 26.4862C32.3313 18.7106 25.8748 12.3994 17.929 12.3994C12.2872 12.3994 7.12241 15.6581 4.79866 20.7112C4.02522 22.3819 3.62647 24.3412 3.62647 26.4862C3.62647 28.095 3.76483 30.6319 4.95678 33.9319C5.15616 34.4681 4.89748 35.0662 4.381 35.2519C4.25826 35.2986 4.12733 35.32 3.99608 35.3149C3.86484 35.3098 3.73599 35.2782 3.61727 35.222C3.49855 35.1658 3.39242 35.0862 3.30524 34.9879C3.21807 34.8897 3.15165 34.7749 3.10998 34.6503C2.15149 32.035 1.66047 29.2716 1.65936 26.4862C1.65936 24.0112 2.11655 21.7597 3.0103 19.8037C5.65287 14.0459 11.513 10.3162 17.929 10.3162C26.968 10.3162 34.3182 17.5556 34.3182 26.4656C34.3182 29.8069 31.5768 32.5294 28.1994 32.5294C24.8221 32.5294 22.0807 29.8069 22.0807 26.4656C22.0815 24.2587 20.2339 22.4609 17.9497 22.4609C15.6655 22.4609 13.8178 24.2553 13.8178 26.4622C13.8178 29.9856 15.1292 33.289 17.5329 35.764C19.4235 37.7028 21.2282 38.7719 24.0289 39.5797C24.5651 39.724 24.8633 40.3015 24.7241 40.8378C24.6807 41.0555 24.5647 41.252 24.3949 41.395C24.2252 41.538 24.0119 41.6191 23.79 41.625Z" fill="#FBF5E9"/>
</svg>
