<svg width="44" height="45" viewBox="0 0 44 45" fill="none" xmlns="http://www.w3.org/2000/svg">
<path d="M35.4884 6.66569C35.33 6.55745 35.1479 6.48892 34.9575 6.46589C34.7671 6.44286 34.5739 6.46601 34.3943 6.53337L16.9427 13.1916C16.1829 13.4808 15.2333 13.6213 14.2579 13.6213C12.8977 13.6241 11.4885 13.3458 10.5103 12.9665C10.2134 12.8582 9.92817 12.7202 9.659 12.5546C9.73676 12.5218 9.82271 12.4864 9.92366 12.4523L25.794 6.39832L28.1583 7.29046V4.68226C28.1584 4.4909 28.1121 4.30236 28.0235 4.13275C27.9349 3.96314 27.8065 3.81751 27.6494 3.70828C27.491 3.60015 27.3089 3.53168 27.1185 3.50866C26.9281 3.48563 26.7349 3.50871 26.5553 3.57596L9.10511 10.2315C8.56486 10.4266 8.10511 10.6585 7.71357 11.0022C7.32612 11.3351 6.99461 11.8821 7.00007 12.4891C7.00007 12.5068 7.00552 12.5328 7.00552 12.5328V35.9765C7.00552 35.9874 7.00143 35.9969 7.00143 36.0038C7.00143 36.0133 7.00552 36.0174 7.00552 36.027V36.0501H7.00825C7.04645 36.8686 7.51303 37.3911 7.96323 37.7621C9.3725 38.8575 11.7395 39.47 14.2565 39.5C15.4502 39.5 16.6603 39.3418 17.7818 38.9175L35.2387 32.2579C35.4631 32.1732 35.6562 32.0219 35.7922 31.8245C35.9282 31.627 36.0007 31.3927 36 31.153V7.6424C35.9998 7.45094 35.9533 7.26236 35.8645 7.09276C35.7756 6.92316 35.6471 6.77757 35.4898 6.66842L35.4884 6.66569ZM8.09147 16.3646C8.14345 16.4826 8.17571 16.6085 8.18697 16.737L8.19106 16.8093C8.21289 17.1694 8.36841 17.3631 8.68628 17.6414C9.75449 18.4967 11.9359 19.1146 14.2565 19.1337C15.1479 19.1415 16.0357 19.0202 16.8923 18.7736V21.2154C16.0096 21.4118 15.1187 21.4977 14.2429 21.4977C11.9591 21.4623 9.78724 21.0162 8.0901 20.0613L8.09147 16.3646ZM14.2443 33.8962C11.9591 33.858 9.78724 33.4133 8.09147 32.4571V28.7562C8.14551 28.875 8.17785 29.0025 8.18697 29.1327L8.19106 29.205C8.21562 29.5679 8.36841 29.7602 8.68765 30.0398C9.75449 30.8924 11.9346 31.5131 14.2565 31.5267C15.1706 31.5267 16.0669 31.4176 16.8923 31.1721V33.6111C16.0218 33.8026 15.1328 33.8978 14.2415 33.8948L14.2443 33.8962Z" fill="#9882AC"/>
<path d="M35 7.5L18 13.8934V37.5L35 31.1066V7.5Z" fill="url(#paint0_linear_281_1703)" stroke="#9882AC"/>
<defs>
<linearGradient id="paint0_linear_281_1703" x1="17.7744" y1="7.84064" x2="44.1444" y2="22.134" gradientUnits="userSpaceOnUse">
<stop stop-color="#E0C89A"/>
<stop offset="0.817708" stop-color="#FFF0D3"/>
</linearGradient>
</defs>
</svg>
