<svg width="15" height="27" viewBox="0 0 15 27" fill="none" xmlns="http://www.w3.org/2000/svg">
<path d="M2.97235 1.01451L14.6198 12.5396C14.7581 12.6768 14.8558 12.8254 14.9129 12.9855C14.971 13.1456 15 13.3171 15 13.5C15 13.6829 14.971 13.8544 14.9129 14.0145C14.8558 14.1746 14.7581 14.3232 14.6198 14.4604L2.97235 26.0198C2.64977 26.3399 2.24654 26.5 1.76267 26.5C1.2788 26.5 0.864055 26.3285 0.518433 25.9855C0.172811 25.6425 -9.53674e-07 25.2423 -9.53674e-07 24.785C-9.53674e-07 24.3276 0.172811 23.9274 0.518433 23.5844L10.6797 13.5L0.518433 3.41557C0.195852 3.09543 0.0345612 2.7012 0.0345612 2.23288C0.0345612 1.76364 0.207372 1.35752 0.552995 1.01451C0.898617 0.671505 1.30184 0.5 1.76267 0.5C2.2235 0.5 2.62673 0.671505 2.97235 1.01451Z" fill="#262626"/>
</svg>
