<svg width="28" height="36" viewBox="0 0 28 36" fill="none" xmlns="http://www.w3.org/2000/svg">
<path d="M10.4 36C7.64 36 5.3 35.04 3.38 33.12C1.46 31.2 0.5 28.86 0.5 26.1V7.2C0.5 5.22 1.205 3.525 2.615 2.115C4.025 0.705 5.72 0 7.7 0C9.68 0 11.375 0.705 12.785 2.115C14.195 3.525 14.9 5.22 14.9 7.2V21.6H12.2V7.2C12.2 5.94 11.765 4.875 10.895 4.005C10.025 3.135 8.96 2.7 7.7 2.7C6.44 2.7 5.375 3.135 4.505 4.005C3.635 4.875 3.2 5.94 3.2 7.2V26.1C3.2 28.08 3.905 29.775 5.315 31.185C6.725 32.595 8.42 33.3 10.4 33.3C11.27 33.3 12.0878 33.1572 12.8534 32.8716C13.619 32.586 14.3012 32.1888 14.9 31.68V34.92C14.21 35.25 13.49 35.5128 12.74 35.7084C11.99 35.904 11.21 36.0012 10.4 36ZM18.5 28.8H14.9C14.39 28.8 13.9622 28.6272 13.6166 28.2816C13.271 27.936 13.0988 27.5088 13.1 27C13.1 26.49 13.2728 26.0622 13.6184 25.7166C13.964 25.371 14.3912 25.1988 14.9 25.2H18.5V21.6C18.5 21.09 18.6728 20.6622 19.0184 20.3166C19.364 19.971 19.7912 19.7988 20.3 19.8C20.81 19.8 21.2378 19.9728 21.5834 20.3184C21.929 20.664 22.1012 21.0912 22.1 21.6V25.2H25.7C26.21 25.2 26.6378 25.3728 26.9834 25.7184C27.329 26.064 27.5012 26.4912 27.5 27C27.5 27.51 27.3272 27.9378 26.9816 28.2834C26.636 28.629 26.2088 28.8012 25.7 28.8H22.1V32.4C22.1 32.91 21.9272 33.3378 21.5816 33.6834C21.236 34.029 20.8088 34.2012 20.3 34.2C19.79 34.2 19.3622 34.0272 19.0166 33.6816C18.671 33.336 18.4988 32.9088 18.5 32.4V28.8ZM10.4 26.1V28.8C9.14 28.8 8.075 28.365 7.205 27.495C6.335 26.625 5.9 25.56 5.9 24.3V8.55C5.9 8.16 6.0278 7.8378 6.2834 7.5834C6.539 7.329 6.8612 7.2012 7.25 7.2C7.64 7.2 7.9622 7.3278 8.2166 7.5834C8.471 7.839 8.5988 8.1612 8.6 8.55V24.3C8.6 24.81 8.7728 25.2378 9.1184 25.5834C9.464 25.929 9.8912 26.1012 10.4 26.1ZM17.6 16.2V8.55C17.6 8.16 17.7278 7.8378 17.9834 7.5834C18.239 7.329 18.5612 7.2012 18.95 7.2C19.34 7.2 19.6622 7.3278 19.9166 7.5834C20.171 7.839 20.2988 8.1612 20.3 8.55V16.2H17.6Z" fill="#9882AC"/>
</svg>
