<svg width="30" height="26" viewBox="0 0 30 26" fill="none" xmlns="http://www.w3.org/2000/svg">
<path d="M15.9902 13.5091V20.6526C15.9902 20.8556 15.9068 21.0503 15.7585 21.1938C15.6102 21.3373 15.409 21.418 15.1992 21.418C14.9894 21.418 14.7883 21.3373 14.6399 21.1938C14.4916 21.0503 14.4083 20.8556 14.4083 20.6526V13.5091C14.4083 13.3061 14.4916 13.1114 14.6399 12.9679C14.7883 12.8243 14.9894 12.7437 15.1992 12.7437C15.409 12.7437 15.6102 12.8243 15.7585 12.9679C15.9068 13.1114 15.9902 13.3061 15.9902 13.5091ZM29.6844 10.6835L27.8546 23.9501C27.7955 24.3789 27.5776 24.7724 27.2413 25.0575C26.905 25.3425 26.4732 25.4998 26.0262 25.5H4.37228C3.92521 25.4998 3.49342 25.3425 3.15713 25.0575C2.82084 24.7724 2.60292 24.3789 2.54384 23.9501L0.715403 10.6835C0.680665 10.4314 0.701996 10.175 0.777966 9.93145C0.853936 9.68792 0.982794 9.46291 1.15591 9.27148C1.32903 9.08004 1.54241 8.92661 1.78178 8.82144C2.02114 8.71627 2.28096 8.6618 2.54384 8.66166H7.45835L14.6034 0.759128C14.6776 0.677687 14.7689 0.612461 14.8712 0.567783C14.9734 0.523106 15.0844 0.5 15.1966 0.5C15.3088 0.5 15.4197 0.523106 15.522 0.567783C15.6243 0.612461 15.7156 0.677687 15.7898 0.759128L22.9348 8.66804H27.8546C28.1175 8.66817 28.3773 8.72265 28.6167 8.82782C28.856 8.93299 29.0694 9.08642 29.2425 9.27785C29.4156 9.46929 29.5445 9.6943 29.6205 9.93782C29.6964 10.1813 29.7178 10.4378 29.683 10.6899L29.6844 10.6835ZM9.55967 8.66166H20.8388L15.1992 2.4251L9.55967 8.66166ZM28.0523 10.2792C28.0276 10.252 27.9972 10.2301 27.9631 10.2152C27.929 10.2002 27.892 10.1925 27.8546 10.1924H2.54384C2.50618 10.1923 2.46893 10.2 2.4346 10.2149C2.40026 10.2299 2.36964 10.2518 2.34478 10.2792C2.31978 10.3064 2.30108 10.3384 2.28994 10.3732C2.2788 10.4079 2.27547 10.4446 2.28019 10.4807L4.10731 23.7473C4.11597 23.8088 4.14753 23.8652 4.19607 23.9058C4.2446 23.9464 4.30679 23.9685 4.37096 23.968H26.0262C26.0903 23.9685 26.1525 23.9464 26.2011 23.9058C26.2496 23.8652 26.2812 23.8088 26.2898 23.7473L28.1182 10.4807C28.1234 10.4445 28.1202 10.4076 28.1088 10.3727C28.0974 10.3379 28.0781 10.3059 28.0523 10.2792ZM22.2388 12.7437C22.1354 12.7336 22.031 12.7434 21.9316 12.7724C21.8321 12.8013 21.7395 12.849 21.6591 12.9126C21.5787 12.9762 21.512 13.0545 21.4628 13.1431C21.4137 13.2316 21.3831 13.3287 21.3727 13.4287L20.6344 20.5722C20.6229 20.6728 20.6322 20.7747 20.6616 20.8718C20.6911 20.9689 20.7401 21.0594 20.806 21.1381C20.8718 21.2167 20.9531 21.282 21.0452 21.33C21.1373 21.3781 21.2383 21.408 21.3424 21.418H21.4228C21.6195 21.4189 21.8096 21.3489 21.9559 21.2215C22.1021 21.0941 22.1941 20.9186 22.2137 20.7291L22.952 13.5856C22.9629 13.4849 22.953 13.3831 22.923 13.2861C22.893 13.1891 22.8434 13.0989 22.777 13.0206C22.7107 12.9422 22.629 12.8775 22.5366 12.8299C22.4442 12.7824 22.343 12.7531 22.2388 12.7437ZM9.02577 13.4325C9.00479 13.2306 8.90176 13.0449 8.73933 12.9164C8.5769 12.788 8.36839 12.7272 8.15967 12.7475C7.95094 12.7678 7.75909 12.8675 7.62633 13.0247C7.49358 13.1819 7.43078 13.3836 7.45176 13.5856L8.18999 20.7291C8.20966 20.9186 8.3016 21.0941 8.44786 21.2215C8.59411 21.3489 8.78418 21.4189 8.98095 21.418H9.06136C9.16471 21.4079 9.26501 21.3783 9.35652 21.3307C9.44803 21.2832 9.52896 21.2186 9.5947 21.1408C9.66043 21.063 9.70968 20.9734 9.73964 20.8771C9.76959 20.7809 9.77966 20.6799 9.76927 20.5799L9.02577 13.4325Z" fill="#9882AC"/>
</svg>
