<svg width="44" height="44" viewBox="0 0 44 44" fill="none" xmlns="http://www.w3.org/2000/svg">
<path d="M14.3003 3.66699H29.7003C35.567 3.66699 40.3337 8.43366 40.3337 14.3003V29.7003C40.3337 32.5205 39.2134 35.2251 37.2192 37.2192C35.2251 39.2134 32.5205 40.3337 29.7003 40.3337H14.3003C8.43366 40.3337 3.66699 35.567 3.66699 29.7003V14.3003C3.66699 11.4802 4.78729 8.77556 6.78142 6.78142C8.77556 4.78729 11.4802 3.66699 14.3003 3.66699ZM13.9337 7.33366C12.1832 7.33366 10.5045 8.02901 9.26675 9.26675C8.02901 10.5045 7.33366 12.1832 7.33366 13.9337V30.067C7.33366 33.7153 10.2853 36.667 13.9337 36.667H30.067C31.8174 36.667 33.4962 35.9716 34.7339 34.7339C35.9716 33.4962 36.667 31.8174 36.667 30.067V13.9337C36.667 10.2853 33.7153 7.33366 30.067 7.33366H13.9337ZM31.6253 10.0837C32.2331 10.0837 32.816 10.3251 33.2458 10.7549C33.6756 11.1846 33.917 11.7675 33.917 12.3753C33.917 12.9831 33.6756 13.566 33.2458 13.9958C32.816 14.4255 32.2331 14.667 31.6253 14.667C31.0175 14.667 30.4346 14.4255 30.0049 13.9958C29.5751 13.566 29.3337 12.9831 29.3337 12.3753C29.3337 11.7675 29.5751 11.1846 30.0049 10.7549C30.4346 10.3251 31.0175 10.0837 31.6253 10.0837ZM22.0003 12.8337C24.4315 12.8337 26.7631 13.7994 28.4821 15.5185C30.2012 17.2376 31.167 19.5692 31.167 22.0003C31.167 24.4315 30.2012 26.7631 28.4821 28.4821C26.7631 30.2012 24.4315 31.167 22.0003 31.167C19.5692 31.167 17.2376 30.2012 15.5185 28.4821C13.7994 26.7631 12.8337 24.4315 12.8337 22.0003C12.8337 19.5692 13.7994 17.2376 15.5185 15.5185C17.2376 13.7994 19.5692 12.8337 22.0003 12.8337ZM22.0003 16.5003C20.5416 16.5003 19.1427 17.0798 18.1112 18.1112C17.0798 19.1427 16.5003 20.5416 16.5003 22.0003C16.5003 23.459 17.0798 24.858 18.1112 25.8894C19.1427 26.9209 20.5416 27.5003 22.0003 27.5003C23.459 27.5003 24.858 26.9209 25.8894 25.8894C26.9209 24.858 27.5003 23.459 27.5003 22.0003C27.5003 20.5416 26.9209 19.1427 25.8894 18.1112C24.858 17.0798 23.459 16.5003 22.0003 16.5003Z" fill="#AEC670"/>
</svg>
