<svg width="31" height="31" viewBox="0 0 31 31" fill="none" xmlns="http://www.w3.org/2000/svg">
<path d="M3.44444 31C2.49722 31 1.68606 30.663 1.01094 29.9891C0.336981 29.3139 0 28.5028 0 27.5556V3.44444C0 2.49722 0.336981 1.68606 1.01094 1.01094C1.68606 0.336981 2.49722 0 3.44444 0H17.2222C17.7102 0 18.1195 0.164759 18.4502 0.494278C18.7797 0.824944 18.9444 1.23426 18.9444 1.72222C18.9444 2.21019 18.7797 2.61893 18.4502 2.94844C18.1195 3.27911 17.7102 3.44444 17.2222 3.44444H3.44444V27.5556H27.5556V13.7778C27.5556 13.2898 27.7209 12.8805 28.0516 12.5498C28.3811 12.2203 28.7898 12.0556 29.2778 12.0556C29.7657 12.0556 30.1745 12.2203 30.504 12.5498C30.8347 12.8805 31 13.2898 31 13.7778V27.5556C31 28.5028 30.663 29.3139 29.9891 29.9891C29.3139 30.663 28.5028 31 27.5556 31H3.44444ZM25.8333 10.3333C25.3454 10.3333 24.9366 10.168 24.6071 9.83733C24.2764 9.50781 24.1111 9.09907 24.1111 8.61111V6.88889H22.3889C21.9009 6.88889 21.4922 6.72413 21.1627 6.39461C20.832 6.06394 20.6667 5.65463 20.6667 5.16667C20.6667 4.6787 20.832 4.26939 21.1627 3.93872C21.4922 3.6092 21.9009 3.44444 22.3889 3.44444H24.1111V1.72222C24.1111 1.23426 24.2764 0.824944 24.6071 0.494278C24.9366 0.164759 25.3454 0 25.8333 0C26.3213 0 26.73 0.164759 27.0596 0.494278C27.3902 0.824944 27.5556 1.23426 27.5556 1.72222V3.44444H29.2778C29.7657 3.44444 30.1745 3.6092 30.504 3.93872C30.8347 4.26939 31 4.6787 31 5.16667C31 5.65463 30.8347 6.06394 30.504 6.39461C30.1745 6.72413 29.7657 6.88889 29.2778 6.88889H27.5556V8.61111C27.5556 9.09907 27.3902 9.50781 27.0596 9.83733C26.73 10.168 26.3213 10.3333 25.8333 10.3333ZM6.88889 24.1111H24.1111C24.4556 24.1111 24.7139 23.9532 24.8861 23.6375C25.0583 23.3218 25.0296 23.0204 24.8 22.7333L20.0639 16.4042C19.8917 16.1745 19.662 16.0597 19.375 16.0597C19.088 16.0597 18.8583 16.1745 18.6861 16.4042L14.2083 22.3889L11.0222 18.1264C10.85 17.8968 10.6204 17.7819 10.3333 17.7819C10.0463 17.7819 9.81667 17.8968 9.64445 18.1264L6.2 22.7333C5.97037 23.0204 5.94167 23.3218 6.11389 23.6375C6.28611 23.9532 6.54444 24.1111 6.88889 24.1111ZM3.44444 13.7778V27.5556V3.44444V13.7778Z" fill="#9882AC"/>
</svg>
