<svg width="44" height="44" viewBox="0 0 44 44" fill="none" xmlns="http://www.w3.org/2000/svg">
<path d="M25.7613 21.7373C26.4743 21.9343 27.153 22.2282 27.7765 22.6062C28.4151 23.0003 28.949 23.5306 29.3322 24.1505C29.7306 24.8385 29.9327 25.6106 29.9175 26.3935C29.9509 27.4031 29.6308 28.395 29.0062 29.217C28.3496 30.0609 27.448 30.7091 26.4095 31.0838C25.2917 31.5029 24.0951 31.7046 22.892 31.6768C21.4768 31.7141 20.073 31.4289 18.8006 30.8456C17.9644 30.432 17.2464 29.8353 16.7073 29.106C16.1679 28.4045 15.8656 27.5668 15.8398 26.7017C15.8398 26.3128 16.0042 25.9398 16.2969 25.6648C16.5895 25.3898 16.9865 25.2353 17.4003 25.2353C17.8142 25.2353 18.2111 25.3898 18.5037 25.6648C18.7964 25.9398 18.9608 26.3128 18.9608 26.7017C18.9913 26.9704 19.1 27.2248 19.2754 27.4398C19.5232 27.7748 19.853 28.0489 20.2362 28.2406C21.0656 28.6061 21.9769 28.7781 22.892 28.7458C23.684 28.7697 24.4731 28.6435 25.2122 28.375C25.7079 28.2084 26.1426 27.9092 26.4629 27.5186C26.7017 27.2067 26.8201 26.8275 26.7984 26.4437C26.8143 26.1482 26.7507 25.8537 26.6135 25.5873C26.4717 25.3688 26.2779 25.1842 26.0473 25.0481C25.6775 24.8287 25.2772 24.6586 24.8576 24.5428C24.5144 24.4461 24.1427 24.3512 23.7556 24.2562L23.727 24.2526C23.6994 24.2448 23.6714 24.2382 23.6432 24.2329C23.3857 24.17 23.127 24.1115 22.8672 24.0573C22.179 23.9176 21.7004 23.8065 21.4011 23.7205L21.382 23.7098C21.3773 23.7068 21.3722 23.7044 21.3668 23.7026C20.6747 23.545 19.9941 23.3443 19.3268 23.1042C18.447 22.7722 17.6744 22.2307 17.0848 21.533C16.4733 20.7794 16.1538 19.8522 16.1792 18.9048C16.1792 17.9553 16.5109 17.029 17.1229 16.2712C17.7597 15.508 18.6119 14.9275 19.5823 14.5979C20.6546 14.2348 21.7887 14.0599 22.9282 14.0819C23.8243 14.073 24.7184 14.1894 25.5783 14.4277C26.3218 14.6319 27.0196 14.9652 27.6354 15.4095C28.1692 15.7893 28.6115 16.2658 28.9413 16.8141C29.1373 17.1564 29.1805 17.5579 29.0614 17.9301C28.9423 18.3024 28.6708 18.615 28.3065 18.7991C28.1261 18.8903 27.9283 18.9472 27.7246 18.9665C27.5208 18.9859 27.3149 18.9673 27.1188 18.9119C26.7226 18.8 26.39 18.5449 26.1941 18.2025C26.0613 18.0059 25.8891 17.8355 25.6869 17.7009C25.3746 17.4866 25.024 17.3264 24.6517 17.2279C24.091 17.0766 23.5096 17.0042 22.9263 17.0129C22.1729 16.9923 21.4218 17.0997 20.7091 17.33C20.2839 17.4662 19.9083 17.7063 19.6166 18.0287C19.4088 18.2783 19.2961 18.5861 19.2963 18.903C19.271 19.1987 19.3596 19.4931 19.5461 19.7325C19.8016 20.0245 20.1314 20.2521 20.507 20.3882C21.2348 20.6509 21.9839 20.8582 22.7471 21.0081C23.3877 21.1407 23.9044 21.2589 24.3428 21.3718C24.8404 21.4882 25.3247 21.6119 25.7613 21.7373Z" fill="#AEC670"/>
<path fill-rule="evenodd" clip-rule="evenodd" d="M12.4883 0.00238385C10.3594 0.00184769 8.26568 0.545683 6.40615 1.58221C4.54663 2.61875 2.98305 4.11354 1.86399 5.92456C0.74493 7.73557 0.107567 9.80265 0.0124654 11.9294C-0.0826367 14.0561 0.367681 16.1718 1.32063 18.0755C0.680514 21.4454 0.873848 24.9207 1.8838 28.1989C2.89375 31.4771 4.6897 34.4587 7.1153 36.8842C9.5409 39.3097 12.5226 41.1056 15.8009 42.1155C19.0792 43.1254 22.5546 43.3187 25.9247 42.6786C28.2689 43.8524 30.9231 44.2585 33.5111 43.8394C36.099 43.4202 38.4894 42.197 40.3432 40.3433C42.197 38.4896 43.4202 36.0993 43.8394 33.5115C44.2585 30.9236 43.8524 28.2695 42.6786 25.9254C43.319 22.5555 43.126 19.0801 42.1164 15.8019C41.1068 12.5236 39.3111 9.54184 36.8857 7.11609C34.4604 4.69035 31.4788 2.89417 28.2006 1.88394C24.9225 0.873715 21.447 0.680053 18.0769 1.31982C16.3425 0.45008 14.4286 0.000480544 12.4883 0.00238385ZM3.57033 12.4871C3.57018 10.9249 3.98043 9.39007 4.76 8.03627C5.53957 6.68248 6.66111 5.55722 8.01233 4.77315C9.36355 3.98908 10.897 3.57371 12.4593 3.56863C14.0215 3.56354 15.5577 3.96893 16.914 4.74419C17.3 4.96507 17.7546 5.03377 18.1887 4.93681C21.0626 4.29353 24.0525 4.38682 26.8808 5.20802C29.709 6.02921 32.2839 7.55169 34.3664 9.63409C36.4489 11.7165 37.9714 14.2913 38.7926 17.1194C39.6139 19.9476 39.7071 22.9374 39.0638 25.8112C38.9669 26.2453 39.0356 26.6999 39.2565 27.0859C40.2299 28.7848 40.617 30.7568 40.3582 32.6976C40.0994 34.6385 39.209 36.4402 37.8245 37.8247C36.4399 39.2092 34.6381 40.0996 32.6972 40.3584C30.7563 40.6172 28.7842 40.23 27.0852 39.2566C26.7002 39.0356 26.2465 38.966 25.8129 39.0616C22.939 39.7049 19.9491 39.6116 17.1208 38.7904C14.2926 37.9692 11.7177 36.4468 9.63521 34.3644C7.55273 32.282 6.0302 29.7072 5.20897 26.879C4.38775 24.0509 4.29445 21.0611 4.93776 18.1872C5.03471 17.7532 4.96601 17.2986 4.74513 16.9126C3.97295 15.5657 3.56786 14.0396 3.57033 12.4871Z" fill="#AEC670"/>
</svg>
