<svg width="20" height="26" viewBox="0 0 20 26" fill="none" xmlns="http://www.w3.org/2000/svg">
<path d="M4.58333 26C3.36776 26 2.20197 25.5292 1.34243 24.6911C0.482885 23.8531 0 22.7164 0 21.5312L0 4.46875C0 3.28356 0.482885 2.14692 1.34243 1.30887C2.20197 0.470814 3.36776 0 4.58333 0H15.4167C16.6322 0 17.798 0.470814 18.6576 1.30887C19.5171 2.14692 20 3.28356 20 4.46875V21.5312C20 22.7164 19.5171 23.8531 18.6576 24.6911C17.798 25.5292 16.6322 26 15.4167 26H4.58333ZM1.66667 21.5312C1.66667 22.2855 1.97396 23.0088 2.52094 23.5421C3.06792 24.0754 3.80979 24.375 4.58333 24.375H15.4167C17.0267 24.375 18.3333 23.101 18.3333 21.5312V4.46875C18.3333 3.71454 18.026 2.99122 17.4791 2.45792C16.9321 1.92461 16.1902 1.625 15.4167 1.625H4.58333C3.80979 1.625 3.06792 1.92461 2.52094 2.45792C1.97396 2.99122 1.66667 3.71454 1.66667 4.46875L1.66667 21.5312ZM4.16667 11.375C3.94565 11.375 3.73369 11.2894 3.57741 11.137C3.42113 10.9847 3.33333 10.778 3.33333 10.5625L3.33333 7.3125C3.33333 7.09701 3.42113 6.89035 3.57741 6.73798C3.73369 6.5856 3.94565 6.5 4.16667 6.5H7.5C7.72101 6.5 7.93298 6.5856 8.08926 6.73798C8.24554 6.89035 8.33333 7.09701 8.33333 7.3125C8.33333 7.52799 8.24554 7.73465 8.08926 7.88702C7.93298 8.0394 7.72101 8.125 7.5 8.125H6.17833L8.92333 10.7997C9.07981 10.9523 9.16772 11.1592 9.16772 11.375C9.16772 11.5908 9.07981 11.7977 8.92333 11.9503C8.76686 12.1028 8.55463 12.1885 8.33333 12.1885C8.11204 12.1885 7.89981 12.1028 7.74333 11.9503L5 9.27387V10.5625C5 10.778 4.9122 10.9847 4.75592 11.137C4.59964 11.2894 4.38768 11.375 4.16667 11.375ZM11.0767 15.2003C10.9202 15.0477 10.8323 14.8408 10.8323 14.625C10.8323 14.4092 10.9202 14.2023 11.0767 14.0497C11.2331 13.8972 11.4454 13.8115 11.6667 13.8115C11.888 13.8115 12.1002 13.8972 12.2567 14.0497L15 16.7261V15.4375C15 15.222 15.0878 15.0153 15.2441 14.863C15.4004 14.7106 15.6123 14.625 15.8333 14.625C16.0543 14.625 16.2663 14.7106 16.4226 14.863C16.5789 15.0153 16.6667 15.222 16.6667 15.4375V18.6875C16.6667 18.903 16.5789 19.1097 16.4226 19.262C16.2663 19.4144 16.0543 19.5 15.8333 19.5H12.5C12.279 19.5 12.067 19.4144 11.9107 19.262C11.7545 19.1097 11.6667 18.903 11.6667 18.6875C11.6667 18.472 11.7545 18.2653 11.9107 18.113C12.067 17.9606 12.279 17.875 12.5 17.875H13.8217L11.0767 15.2003Z" fill="#9882AC"/>
</svg>
