<svg width="33" height="33" viewBox="0 0 33 33" fill="none" xmlns="http://www.w3.org/2000/svg">
<path d="M24.6984 23.9862C26.1067 23.9862 27.2572 22.8196 27.2572 21.392C27.2572 19.6679 24.6984 16.8545 24.6984 16.8545C24.6984 16.8545 22.1396 19.6679 22.1396 21.392C22.1396 22.8196 23.2901 23.9862 24.6984 23.9862ZM12.5458 22.5651C12.7746 22.7939 13.1452 22.7939 13.3708 22.5651L21.624 14.3151C21.8528 14.0863 21.8528 13.7156 21.624 13.4901L13.374 5.24006C13.3547 5.22072 13.3321 5.20139 13.3096 5.18527L10.7895 2.66516C10.7345 2.61092 10.6604 2.58051 10.5832 2.58051C10.506 2.58051 10.4319 2.61092 10.377 2.66516L8.83008 4.21203C8.77584 4.26698 8.74543 4.34108 8.74543 4.41828C8.74543 4.49549 8.77584 4.56959 8.83008 4.62453L10.9957 6.79016L4.29902 13.4901C4.07021 13.7189 4.07021 14.0895 4.29902 14.3151L12.5458 22.5651ZM12.9615 8.10822L18.7269 13.8736H7.19941L12.9615 8.10822ZM29.1328 26.2969H3.86719C3.72539 26.2969 3.60938 26.4129 3.60938 26.5547V29.1328C3.60938 29.2746 3.72539 29.3906 3.86719 29.3906H29.1328C29.2746 29.3906 29.3906 29.2746 29.3906 29.1328V26.5547C29.3906 26.4129 29.2746 26.2969 29.1328 26.2969Z" fill="#9882AC"/>
</svg>
