<svg width="20" height="22" viewBox="0 0 20 22" fill="none" xmlns="http://www.w3.org/2000/svg">
<g clip-path="url(#clip0_336_962)">
<path d="M9.99988 12.4295C10.4096 12.4295 10.8153 12.3488 11.1939 12.192C11.5724 12.0352 11.9163 11.8053 12.2061 11.5156C12.4958 11.2259 12.7256 10.882 12.8824 10.5034C13.0392 10.1249 13.1199 9.71918 13.1199 9.30945C13.1199 8.89973 13.0392 8.49402 12.8824 8.11548C12.7256 7.73695 12.4958 7.393 12.2061 7.10328C11.9163 6.81356 11.5724 6.58374 11.1939 6.42695C10.8153 6.27015 10.4096 6.18945 9.99988 6.18945C9.17241 6.18945 8.37882 6.51817 7.79371 7.10328C7.2086 7.68839 6.87988 8.48198 6.87988 9.30945C6.87988 10.1369 7.2086 10.9305 7.79371 11.5156C8.37882 12.1007 9.17241 12.4295 9.99988 12.4295Z" stroke="#AEC670" stroke-width="2"/>
<path d="M1.61971 7.49C3.58971 -1.17 16.4197 -1.16 18.3797 7.5C19.5297 12.58 16.3697 16.88 13.5997 19.54C12.6318 20.4735 11.3395 20.9952 9.99471 20.9952C8.64995 20.9952 7.35763 20.4735 6.38971 19.54C3.62971 16.88 0.469709 12.57 1.61971 7.49Z" stroke="#AEC670" stroke-width="2"/>
</g>
<defs>
<clipPath id="clip0_336_962">
<rect width="20" height="22" fill="white"/>
</clipPath>
</defs>
</svg>
