<svg width="44" height="44" viewBox="0 0 44 44" fill="none" xmlns="http://www.w3.org/2000/svg">
<path d="M22 3.4375C18.3287 3.4375 14.7398 4.52617 11.6872 6.56585C8.63465 8.60552 6.25545 11.5046 4.85049 14.8964C3.44554 18.2883 3.07794 22.0206 3.79418 25.6214C4.51042 29.2221 6.27833 32.5297 8.87434 35.1257C11.4704 37.7217 14.7779 39.4896 18.3786 40.2058C21.9794 40.9221 25.7117 40.5545 29.1036 39.1495C32.4954 37.7446 35.3945 35.3654 37.4342 32.3128C39.4738 29.2602 40.5625 25.6713 40.5625 22C40.557 17.0786 38.5996 12.3603 35.1196 8.88036C31.6397 5.4004 26.9214 3.44296 22 3.4375ZM24.0625 36.288V26.8125H27.5C28.047 26.8125 28.5716 26.5952 28.9584 26.2084C29.3452 25.8216 29.5625 25.297 29.5625 24.75C29.5625 24.203 29.3452 23.6784 28.9584 23.2916C28.5716 22.9048 28.047 22.6875 27.5 22.6875H24.0625V19.25C24.0625 18.703 24.2798 18.1784 24.6666 17.7916C25.0534 17.4048 25.578 17.1875 26.125 17.1875H28.875C29.422 17.1875 29.9466 16.9702 30.3334 16.5834C30.7202 16.1966 30.9375 15.672 30.9375 15.125C30.9375 14.578 30.7202 14.0534 30.3334 13.6666C29.9466 13.2798 29.422 13.0625 28.875 13.0625H26.125C24.484 13.0625 22.9102 13.7144 21.7498 14.8748C20.5894 16.0352 19.9375 17.609 19.9375 19.25V22.6875H16.5C15.953 22.6875 15.4284 22.9048 15.0416 23.2916C14.6548 23.6784 14.4375 24.203 14.4375 24.75C14.4375 25.297 14.6548 25.8216 15.0416 26.2084C15.4284 26.5952 15.953 26.8125 16.5 26.8125H19.9375V36.288C16.3249 35.7665 13.0438 33.8961 10.7546 31.053C8.4655 28.21 7.33818 24.6054 7.59958 20.9646C7.86097 17.3239 9.49166 13.9173 12.1635 11.4305C14.8353 8.94361 18.3499 7.56105 22 7.56105C25.6501 7.56105 29.1647 8.94361 31.8365 11.4305C34.5084 13.9173 36.139 17.3239 36.4004 20.9646C36.6618 24.6054 35.5345 28.21 33.2454 31.053C30.9562 33.8961 27.6752 35.7665 24.0625 36.288Z" fill="#AEC670"/>
</svg>
