<svg width="44" height="44" viewBox="0 0 44 44" fill="none" xmlns="http://www.w3.org/2000/svg">
<g clip-path="url(#clip0_336_975)">
<path d="M13.1223 10.2675C12.7134 10.2133 12.2965 10.2883 11.9409 10.48H11.9101C11.0852 10.9211 10.3416 11.4765 9.70803 12.1302C9.18006 12.6856 8.89407 13.247 8.81927 13.7884C8.77527 14.1092 8.80607 14.434 8.90947 14.7408L8.94907 14.7608C9.54304 16.3508 10.3174 17.8807 11.2634 19.3203C12.4831 21.3424 13.9841 23.2125 15.7292 24.8843L15.782 24.9525L15.8656 25.0087L15.9161 25.0628L15.9777 25.1109C17.8185 26.7062 19.8751 28.0808 22.0979 29.2012C24.6388 30.4624 26.1809 31.0579 27.107 31.3065V31.3186C27.3776 31.3948 27.624 31.4288 27.8726 31.4288C28.6614 31.3757 29.4079 31.0835 29.9933 30.5988C30.7083 30.0213 31.3132 29.3416 31.784 28.5857V28.5716C32.2262 27.8097 32.0766 27.0919 31.4386 26.6047C30.1572 25.5842 28.7715 24.6778 27.3006 23.8979C26.3151 23.4106 25.3141 23.7054 24.9093 24.1986L24.0448 25.1931C23.6004 25.6864 22.7952 25.6182 22.7952 25.6182L22.7732 25.6302C16.7653 24.2327 15.1616 18.6887 15.1616 18.6887C15.1616 18.6887 15.0868 17.9348 15.6434 17.5499L16.7257 16.7559C17.2449 16.3709 17.6057 15.4606 17.0491 14.5623C16.1991 13.2205 15.2066 11.9579 14.0858 10.7928C13.8414 10.5186 13.4986 10.3319 13.1179 10.2655L13.1223 10.2675ZM23.2748 7.85742C22.9831 7.85742 22.7033 7.96305 22.497 8.15106C22.2908 8.33907 22.1749 8.59406 22.1749 8.85995C22.1749 9.12584 22.2908 9.38083 22.497 9.56884C22.7033 9.75685 22.9831 9.86248 23.2748 9.86248C26.0555 9.86248 28.3654 10.6906 30.1935 12.2786C31.1329 13.1468 31.8654 14.1754 32.345 15.3022C32.8268 16.431 33.0468 17.6361 32.9896 18.8431C32.9773 19.109 33.0815 19.3684 33.2791 19.5643C33.4767 19.7603 33.7516 19.8766 34.0433 19.8878C34.3351 19.8989 34.6197 19.804 34.8346 19.6239C35.0496 19.4438 35.1772 19.1932 35.1895 18.9273C35.2577 17.4426 34.9873 15.961 34.3953 14.5764C33.8008 13.1851 32.8993 11.9199 31.7466 10.859L31.7246 10.8389C29.4565 8.86396 26.5879 7.85742 23.2748 7.85742Z" fill="#AEC670"/>
<path d="M23.9117 11.0022C23.6381 11.0022 23.3756 11.1171 23.1821 11.3215C22.9886 11.526 22.8799 11.8034 22.8799 12.0925C22.8799 12.3817 22.9886 12.659 23.1821 12.8635C23.3756 13.068 23.6381 13.1829 23.9117 13.1829H23.9468C25.8289 13.3246 27.1992 13.9876 28.1588 15.0757C29.1432 16.1966 29.6529 17.5901 29.6137 19.3129C29.6074 19.602 29.7101 19.882 29.8991 20.0912C30.0882 20.3004 30.3482 20.4216 30.6218 20.4283C30.8955 20.4349 31.1604 20.3264 31.3584 20.1267C31.5563 19.9269 31.6711 19.6522 31.6774 19.363C31.7269 17.1016 31.0376 15.1499 29.6715 13.5929V13.5885C28.2744 12.0053 26.3572 11.1679 24.05 11.0044L24.0149 11L23.9117 11.0022Z" fill="#AEC670"/>
<path d="M23.9584 14.1471C23.8258 14.1333 23.6921 14.1512 23.5654 14.1999C23.4387 14.2485 23.3216 14.3269 23.221 14.4303C23.1205 14.5337 23.0386 14.6601 22.9802 14.8018C22.9218 14.9436 22.8882 15.0978 22.8812 15.2552C22.8743 15.4127 22.8942 15.5702 22.9399 15.7184C22.9855 15.8665 23.0559 16.0023 23.1468 16.1175C23.2377 16.2328 23.3473 16.3251 23.469 16.3891C23.5908 16.4531 23.7222 16.4874 23.8553 16.4899C24.6842 16.5416 25.2136 16.8373 25.5467 17.2341C25.8818 17.6331 26.1316 18.274 26.1772 19.2764C26.1797 19.4339 26.2089 19.5892 26.2632 19.7331C26.3174 19.8769 26.3956 20.0064 26.493 20.1137C26.5904 20.221 26.7051 20.3041 26.8301 20.3578C26.9552 20.4116 27.0882 20.435 27.221 20.4266C27.3539 20.4183 27.484 20.3783 27.6036 20.3092C27.7232 20.2401 27.8298 20.1431 27.917 20.0242C28.0043 19.9052 28.0704 19.7667 28.1115 19.6169C28.1525 19.467 28.1677 19.3089 28.1561 19.152C28.0926 17.7435 27.7199 16.4993 26.9565 15.5838C26.1891 14.6683 25.1442 14.2222 23.9584 14.1471Z" fill="#AEC670"/>
<path fill-rule="evenodd" clip-rule="evenodd" d="M10.9827 1.11915C18.2381 -0.373051 25.762 -0.373051 33.0174 1.11915L33.7903 1.27649C35.9112 1.71274 37.8592 2.68149 39.4177 4.07509C40.9762 5.46869 42.0843 7.23258 42.6188 9.17076C44.4604 15.848 44.4604 22.8428 42.6188 29.52C42.0843 31.4582 40.9762 33.2221 39.4177 34.6157C37.8592 36.0093 35.9112 36.9781 33.7903 37.4143L33.0151 37.5716C28.4709 38.5066 23.8081 38.8589 19.1591 38.6185L13.11 43.5988C12.882 43.7867 12.6033 43.9148 12.3031 43.9697C12.0028 44.0247 11.6921 44.0045 11.4033 43.9113C11.1144 43.8181 10.8581 43.6552 10.661 43.4397C10.4639 43.2242 10.3332 42.964 10.2827 42.6862L9.28176 37.1856C7.36235 36.6361 5.62819 35.6429 4.245 34.3008C2.86182 32.9588 1.87584 31.3127 1.38129 29.52C-0.460431 22.8428 -0.460431 15.848 1.38129 9.17076C1.91579 7.23258 3.02386 5.46869 4.58237 4.07509C6.14089 2.68149 8.08883 1.71274 10.2098 1.27649L10.9827 1.11915ZM32.2718 4.18833C25.5074 2.79704 18.4926 2.79704 11.7283 4.18833L10.9531 4.34777C9.44985 4.65753 8.06937 5.34458 6.96492 6.33262C5.86047 7.32066 5.07527 8.57103 4.69653 9.94487C2.99494 16.1141 2.99494 22.5767 4.69653 28.7459C5.07545 30.12 5.86099 31.3706 6.96587 32.3587C8.07075 33.3467 9.45171 34.0336 10.9553 34.343L11.1605 34.385C11.4925 34.4533 11.7948 34.6111 12.0287 34.8384C12.2627 35.0656 12.4177 35.3518 12.4739 35.6605L13.1442 39.3485L17.4125 35.8346C17.583 35.6939 17.7824 35.5861 17.999 35.5176C18.2156 35.4491 18.4449 35.4214 18.6734 35.436C23.2314 35.7335 27.8122 35.419 32.2718 34.5025L33.0447 34.343C34.5484 34.0336 35.9293 33.3467 37.0342 32.3587C38.1391 31.3706 38.9246 30.12 39.3035 28.7459C41.0045 22.5782 41.0045 16.1147 39.3035 9.94487C38.9246 8.57076 38.1391 7.32021 37.0342 6.33215C35.9293 5.34408 34.5484 4.65718 33.0447 4.34777L32.2718 4.18833Z" fill="#AEC670"/>
</g>
<defs>
<clipPath id="clip0_336_975">
<rect width="44" height="44" fill="white"/>
</clipPath>
</defs>
</svg>
