<svg width="50" height="51" viewBox="0 0 50 51" fill="none" xmlns="http://www.w3.org/2000/svg">
<path d="M47.25 0.641846H2.75C2.02065 0.641846 1.32118 0.931577 0.805457 1.4473C0.289732 1.96303 0 2.6625 0 3.39185V47.8918C0 48.6212 0.289732 49.3207 0.805457 49.8364C1.32118 50.3521 2.02065 50.6418 2.75 50.6418H26.7V31.2668H20.2V23.7668H26.7V18.1418C26.5654 16.8212 26.7213 15.4872 27.1568 14.2332C27.5923 12.9792 28.2969 11.8357 29.2212 10.8829C30.1454 9.93004 31.2669 9.19095 32.5071 8.71744C33.7472 8.24393 35.0759 8.04747 36.4 8.14185C38.3458 8.12987 40.2907 8.23004 42.225 8.44185V15.1918H38.25C35.1 15.1918 34.5 16.6918 34.5 18.8668V23.6918H42L41.025 31.1918H34.5V50.6418H47.25C47.6111 50.6418 47.9687 50.5707 48.3024 50.4325C48.636 50.2943 48.9392 50.0918 49.1945 49.8364C49.4499 49.581 49.6525 49.2779 49.7907 48.9442C49.9289 48.6106 50 48.253 50 47.8918V3.39185C50 3.03071 49.9289 2.67311 49.7907 2.33947C49.6525 2.00582 49.4499 1.70266 49.1945 1.4473C48.9392 1.19194 48.636 0.989378 48.3024 0.851177C47.9687 0.712977 47.6111 0.641846 47.25 0.641846Z" fill="#9882AC"/>
</svg>
