<svg width="26" height="27" viewBox="0 0 26 27" fill="none" xmlns="http://www.w3.org/2000/svg">
<path d="M24.0003 15.4716H14.8337V24.6383C14.8337 25.1245 14.6405 25.5908 14.2967 25.9346C13.9529 26.2784 13.4866 26.4716 13.0003 26.4716C12.5141 26.4716 12.0478 26.2784 11.704 25.9346C11.3601 25.5908 11.167 25.1245 11.167 24.6383V15.4716H2.00033C1.5141 15.4716 1.04778 15.2784 0.703963 14.9346C0.360147 14.5908 0.166992 14.1245 0.166992 13.6383C0.166992 13.152 0.360147 12.6857 0.703963 12.3419C1.04778 11.9981 1.5141 11.8049 2.00033 11.8049H11.167V2.63826C11.167 2.15203 11.3601 1.68572 11.704 1.3419C12.0478 0.998085 12.5141 0.804932 13.0003 0.804932C13.4866 0.804932 13.9529 0.998085 14.2967 1.3419C14.6405 1.68572 14.8337 2.15203 14.8337 2.63826V11.8049H24.0003C24.4866 11.8049 24.9529 11.9981 25.2967 12.3419C25.6405 12.6857 25.8337 13.152 25.8337 13.6383C25.8337 14.1245 25.6405 14.5908 25.2967 14.9346C24.9529 15.2784 24.4866 15.4716 24.0003 15.4716Z" fill="#FBF5E9"/>
</svg>
