<svg width="34" height="33" viewBox="0 0 34 33" fill="none" xmlns="http://www.w3.org/2000/svg">
<path d="M25.1562 15.125C24.7004 15.125 24.2632 15.3061 23.9409 15.6284C23.6186 15.9507 23.4375 16.3879 23.4375 16.8438C23.4375 17.2996 23.6186 17.7368 23.9409 18.0591C24.2632 18.3814 24.7004 18.5625 25.1562 18.5625C25.6121 18.5625 26.0493 18.3814 26.3716 18.0591C26.6939 17.7368 26.875 17.2996 26.875 16.8438C26.875 16.3879 26.6939 15.9507 26.3716 15.6284C26.0493 15.3061 25.6121 15.125 25.1562 15.125Z" fill="#9882AC"/>
<path fill-rule="evenodd" clip-rule="evenodd" d="M6.48803 11.1581L9.3439 10.8419V5.37902C9.3439 4.4949 10.0177 3.75652 10.8977 3.67402C15.1237 3.28387 19.3766 3.28387 23.6027 3.67402C24.4827 3.75652 25.1564 4.4949 25.1564 5.37902V10.8391L28.0123 11.1568C28.5267 11.214 29.0112 11.4275 29.4006 11.7685C29.79 12.1095 30.0656 12.5616 30.1903 13.0639C30.9682 16.1972 30.9682 19.4731 30.1903 22.6064L29.9387 23.6225C29.8831 23.846 29.7543 24.0444 29.5729 24.1862C29.3915 24.3279 29.1679 24.405 28.9377 24.4049H25.1564V27.6128C25.1567 28.0257 25.0035 28.424 24.7265 28.7302C24.4495 29.0364 24.0685 29.2287 23.6577 29.2696C19.3965 29.6959 15.1052 29.6959 10.8427 29.2696C10.4318 29.2287 10.0508 29.0364 9.7738 28.7302C9.4968 28.424 9.34357 28.0257 9.3439 27.6128V24.4063H5.56265C5.33223 24.4062 5.10845 24.3291 4.92701 24.187C4.74558 24.0449 4.61696 23.8462 4.56165 23.6225L4.31003 22.6078C3.53207 19.4745 3.53207 16.1985 4.31003 13.0653C4.4347 12.5629 4.71029 12.1108 5.09969 11.7699C5.4891 11.4289 5.97362 11.2154 6.48803 11.1581ZM23.0939 10.6425C19.2046 10.3236 15.2957 10.3236 11.4064 10.6425V5.70077C15.2948 5.36053 19.2055 5.36053 23.0939 5.70077V10.6425ZM23.0939 22.6903C23.0928 22.5859 23.0596 22.4844 22.9988 22.3996C22.9381 22.3147 22.8527 22.2506 22.7543 22.2159C19.092 21.8913 15.4083 21.8913 11.746 22.2159C11.6467 22.2509 11.5607 22.3159 11.4999 22.4018C11.4391 22.4878 11.4064 22.5905 11.4064 22.6958V27.2525C15.2936 27.6196 19.2067 27.6196 23.0939 27.2525V22.6903ZM28.1305 22.3438H25.1564V21.8859C25.1567 21.473 25.0035 21.0747 24.7265 20.7685C24.4495 20.4622 24.0685 20.27 23.6577 20.229L23.098 20.1754C23.0194 20.1593 22.94 20.1469 22.8602 20.1383C19.1309 19.7365 15.3694 19.7365 11.6402 20.1383C11.5603 20.147 11.481 20.1593 11.4023 20.1754L10.8427 20.2304C10.432 20.2713 10.0512 20.4634 9.77426 20.7693C9.4973 21.0753 9.34392 21.4732 9.3439 21.8859V22.3438H6.36978L6.31203 22.1114C5.61513 19.3045 5.61513 16.3699 6.31203 13.563C6.33505 13.4697 6.38615 13.3856 6.45843 13.3222C6.53071 13.2587 6.62071 13.219 6.71628 13.2083L9.57903 12.8906C14.6774 12.3239 19.8229 12.3239 24.9213 12.8906L27.784 13.2083C27.9807 13.2303 28.1415 13.3719 28.1883 13.563C28.8851 16.3699 28.8851 19.3045 28.1883 22.1114L28.1305 22.3438Z" fill="#9882AC"/>
</svg>
