<svg width="42" height="37" viewBox="0 0 42 37" fill="none" xmlns="http://www.w3.org/2000/svg">
<path fill-rule="evenodd" clip-rule="evenodd" d="M38.4883 5.78125C34.475 3.00625 34.475 0 34.475 0H11.9V7.05432C12.6227 6.37967 13.4433 5.81665 14.3367 5.39128V1.82505H32.11V27.725H14.3367V23.7602C13.4433 23.3349 12.6227 22.7718 11.9 22.0972V28.9063C11.9 33.3 15.9134 37 20.6792 37H42V6.9375C42 6.9375 39.4917 6.475 38.4883 5.78125ZM39.4917 34.6875H20.6792C18.1709 34.6875 16.1642 33.3 15.6625 31.6812C15.4117 30.7562 15.6625 30.0625 16.6659 30.0625H34.475V6.24375C35.4783 7.63125 37.485 8.7875 39.4917 9.25V34.6875Z" fill="#9882AC"/>
<path fill-rule="evenodd" clip-rule="evenodd" d="M19.0517 22.167C23.0864 21.1278 25.5495 16.874 24.5532 12.6658C23.5569 8.45762 19.4784 5.88861 15.4436 6.92777C11.4661 7.95221 9.01591 12.1008 9.9018 16.25L0.660876 20.5767C0.103204 20.8378 -0.151243 21.5086 0.0925512 22.075C0.336346 22.6415 0.986062 22.889 1.54373 22.6279L10.6662 18.3566C12.2736 21.3821 15.6779 23.0359 19.0517 22.167ZM18.5353 19.9861C21.325 19.2676 23.1271 16.2822 22.4021 13.2198C21.677 10.1575 18.7497 8.3902 15.96 9.1087C13.1703 9.82719 11.3682 12.8126 12.0932 15.8749C12.8182 18.9373 15.7456 20.7046 18.5353 19.9861Z" fill="#9882AC"/>
</svg>
