<svg width="33" height="33" viewBox="0 0 33 33" fill="none" xmlns="http://www.w3.org/2000/svg">
<path fill-rule="evenodd" clip-rule="evenodd" d="M4.125 5.5C4.125 4.77066 4.41473 4.07118 4.93046 3.55546C5.44618 3.03973 6.14565 2.75 6.875 2.75H9.625C10.1255 2.75 10.5958 2.88338 11 3.1185C11.4178 2.87651 11.8922 2.74937 12.375 2.75H15.125C16.1246 2.75 17.0005 3.2835 17.4818 4.08238C17.7705 3.85138 18.1088 3.67538 18.4883 3.57363L21.1448 2.86275C21.4936 2.76917 21.8575 2.74523 22.2156 2.7923C22.5737 2.83937 22.919 2.95652 23.2319 3.13707C23.5447 3.31762 23.8189 3.55802 24.0388 3.84455C24.2587 4.13108 24.42 4.45812 24.5135 4.807L30.206 26.0576C30.2996 26.4065 30.3235 26.7704 30.2764 27.1285C30.2294 27.4866 30.1122 27.8319 29.9317 28.1447C29.7511 28.4576 29.5107 28.7318 29.2242 28.9517C28.9377 29.1716 28.6106 29.3329 28.2618 29.4264L25.6052 30.1373C25.2564 30.2308 24.8925 30.2548 24.5344 30.2077C24.1763 30.1606 23.831 30.0435 23.5181 29.8629C23.2053 29.6824 22.9311 29.442 22.7112 29.1555C22.4913 28.8689 22.33 28.5419 22.2365 28.193L17.875 11.9116V27.5C17.875 28.2293 17.5853 28.9288 17.0695 29.4445C16.5538 29.9603 15.8543 30.25 15.125 30.25H12.375C11.8922 30.2506 11.4178 30.1235 11 29.8815C10.5822 30.1235 10.1078 30.2506 9.625 30.25H6.875C6.14565 30.25 5.44618 29.9603 4.93046 29.4445C4.41473 28.9288 4.125 28.2293 4.125 27.5V5.5ZM6.875 5.5H9.625V27.5H6.875V5.5ZM15.125 27.5H12.375V5.5H15.125V27.5ZM19.1991 6.23013L21.8556 5.51925L27.5509 26.7699L24.8944 27.4808L19.1991 6.23013Z" fill="#9882AC"/>
</svg>
