<svg width="102" height="61" viewBox="0 0 102 61" fill="none" xmlns="http://www.w3.org/2000/svg">
<path fill-rule="evenodd" clip-rule="evenodd" d="M44.4443 1.07656C46.1602 0.365816 47.9993 0 49.8566 0C53.6075 0 57.2048 1.49005 59.8571 4.14235C62.5094 6.79465 63.9994 10.3919 63.9994 14.1429C63.9994 15.5659 63.785 16.9668 63.3739 18.3025C63.2257 18.856 63.0449 19.4008 62.8323 19.9338C62.1443 21.6579 61.136 23.2245 59.8649 24.544C58.5938 25.8636 57.0848 26.9104 55.424 27.6245C53.7632 28.3386 51.9832 28.7062 50.1856 28.7062C47.287 28.7062 44.4831 27.7518 42.1639 26.0106C41.3332 25.4721 40.5594 24.8467 39.8561 24.1434C38.5428 22.8301 37.501 21.271 36.7903 19.5551C36.0795 17.8392 35.7137 16.0001 35.7137 14.1429C35.7137 12.2856 36.0795 10.4465 36.7903 8.73062C37.501 7.01473 38.5428 5.45563 39.8561 4.14235C41.1694 2.82906 42.7285 1.78731 44.4443 1.07656ZM59.2678 13.5714C59.2794 13.7614 59.2852 13.952 59.2852 14.1429C59.2852 16.6435 58.2918 19.0417 56.5236 20.8099C54.7554 22.5781 52.3572 23.5714 49.8566 23.5714C47.918 23.5714 46.0409 22.9744 44.4712 21.8821C44.2144 21.668 43.9678 21.4387 43.7327 21.1946C42.0213 19.4179 41.0598 17.0083 41.0598 14.4957C41.0598 13.2516 41.2959 12.0197 41.7545 10.8703C42.2131 9.72086 42.8853 8.67649 43.7327 7.79678C44.5801 6.91706 45.5861 6.21924 46.6933 5.74314C47.8005 5.26704 48.9872 5.022 50.1856 5.022C51.384 5.022 52.5707 5.26704 53.6779 5.74314C54.7851 6.21924 55.7911 6.91706 56.6385 7.79678C57.4859 8.67649 58.1581 9.72086 58.6167 10.8703C58.9613 11.734 59.1803 12.6443 59.2678 13.5714ZM75.0784 9.50754C77.1413 7.44464 79.9392 6.28571 82.8566 6.28571C85.774 6.28571 88.5719 7.44464 90.6348 9.50754C92.6977 11.5704 93.8566 14.3683 93.8566 17.2857C93.8566 20.2031 92.6977 23.001 90.6348 25.0639C88.5719 27.1268 85.774 28.2857 82.8566 28.2857C79.9392 28.2857 77.1413 27.1268 75.0784 25.0639C73.0155 23.001 71.8566 20.2031 71.8566 17.2857C71.8566 14.3683 73.0155 11.5704 75.0784 9.50754ZM78.4119 12.841C77.2331 14.0198 76.5709 15.6186 76.5709 17.2857C76.5709 18.9528 77.2331 20.5516 78.4119 21.7304C79.5907 22.9092 81.1895 23.5714 82.8566 23.5714C84.5237 23.5714 86.1225 22.9092 87.3013 21.7304C88.4801 20.5516 89.1423 18.9528 89.1423 17.2857C89.1423 15.6186 88.4801 14.0198 87.3013 12.841C86.1225 11.6622 84.5237 11 82.8566 11C81.1895 11 79.5907 11.6622 78.4119 12.841ZM28.3563 36.6426C27.0302 37.9688 26.2852 39.7674 26.2852 41.6429V43.3117C26.2875 43.3715 26.2907 43.4312 26.2946 43.4909C26.3508 44.3358 26.4822 45.1741 26.6874 45.9957C27.2061 48.0593 28.1314 49.9986 29.4092 51.7C30.5994 53.2882 32.193 54.808 34.3053 56.0889C37.7693 58.5438 42.8396 60.2852 50.1856 60.2852C61.0088 60.2852 66.8918 56.5052 69.9763 52.2325C70.2165 51.9005 70.4438 51.5595 70.6578 51.2103C71.7547 49.6304 72.5584 47.8641 73.0289 45.9957C73.1882 45.3633 73.3037 44.7206 73.3746 44.0723C73.4061 43.8199 73.424 43.566 73.428 43.3117V41.6429C73.428 39.7674 72.683 37.9688 71.3568 36.6426C70.0307 35.3165 68.232 34.5714 66.3566 34.5714H33.3566C31.4811 34.5714 29.6825 35.3165 28.3563 36.6426ZM67.5418 47.262C67.8097 46.6478 68.0251 46.0085 68.1846 45.3515C68.3185 44.8052 68.3793 44.3599 68.4097 44.0631L68.4371 43.7473V43.6904V42.1273C68.4371 41.4991 68.1968 40.8967 67.7689 40.4525C67.341 40.0084 66.7608 39.7588 66.1557 39.7588H34.2155C33.6104 39.7588 33.0301 40.0084 32.6023 40.4525C32.1744 40.8967 31.9341 41.4991 31.9341 42.1273V43.6904L31.9371 43.7473C31.9774 44.2885 32.0618 44.8251 32.1896 45.3515C32.4512 46.4473 32.9805 47.9188 34.0452 49.3904C34.6485 50.2253 35.4549 51.1029 36.5406 51.9256C39.2635 53.6424 43.4313 55 49.8566 55C59.8886 55 64.4174 51.6906 66.5326 48.8714C66.9403 48.3286 67.272 47.7858 67.5418 47.262ZM82.8503 53.4286C79.17 53.4286 76.1717 52.9791 73.7423 52.2343C74.5874 50.8808 75.2599 49.4269 75.7443 47.9066C77.5703 48.3969 79.8929 48.7143 82.8503 48.7143C90.6509 48.7143 94.0326 46.5017 95.5129 44.8046C96.1194 44.1268 96.57 43.3244 96.8329 42.4537C96.9137 42.1787 96.9684 41.8967 96.9963 41.6114C96.988 40.9917 96.736 40.4002 96.2949 39.965C95.8537 39.5297 95.2589 39.2857 94.6392 39.2857H76.2943C75.8669 37.4817 74.9617 35.8631 73.7234 34.5714H94.636C96.5115 34.5714 98.3101 35.3165 99.6363 36.6426C100.962 37.9688 101.707 39.7674 101.707 41.6429V41.7371L101.701 41.8849C101.653 42.5257 101.538 43.1598 101.359 43.7769C100.904 45.3052 100.121 46.7158 99.0643 47.9097C96.4212 50.9269 91.556 53.4286 82.8503 53.4286ZM25.7738 9.83819C23.7772 7.76542 21.0691 6.60095 18.2454 6.60095C15.4217 6.60095 12.7137 7.76542 10.7171 9.83819C8.72042 11.911 7.59871 14.7222 7.59871 17.6536C7.59871 20.5849 8.72042 23.3962 10.7171 25.469C12.7137 27.5417 15.4217 28.7062 18.2454 28.7062C21.0691 28.7062 23.7772 27.5417 25.7738 25.469C27.7705 23.3962 28.8922 20.5849 28.8922 17.6536C28.8922 14.7222 27.7705 11.911 25.7738 9.83819ZM22.5474 13.1876C23.6883 14.3721 24.3293 15.9785 24.3293 17.6536C24.3293 19.3286 23.6883 20.9351 22.5474 22.1195C21.4064 23.304 19.859 23.9694 18.2454 23.9694C16.6319 23.9694 15.0845 23.304 13.9435 22.1195C12.8026 20.9351 12.1616 19.3286 12.1616 17.6536C12.1616 15.9785 12.8026 14.3721 13.9435 13.1876C15.0845 12.0032 16.6319 11.3378 18.2454 11.3378C19.859 11.3378 21.4064 12.0032 22.5474 13.1876ZM18.2515 53.9694C21.8136 53.9694 24.7156 53.5178 27.067 52.7694C26.2491 51.4094 25.5981 49.9486 25.1293 48.4209C23.3619 48.9136 21.114 49.2325 18.2515 49.2325C10.7015 49.2325 7.42836 47.0094 5.99562 45.3041C5.40859 44.6231 4.97249 43.8168 4.71801 42.942C4.63977 42.6657 4.5868 42.3823 4.55983 42.0957C4.56783 41.473 4.81172 40.8787 5.23871 40.4413C5.6657 40.004 6.24143 39.7588 6.84127 39.7588H24.597C25.0107 37.9462 25.8867 36.3199 27.0853 35.022H6.84432C5.02909 35.022 3.28821 35.7706 2.00465 37.1031C0.72109 38.4356 0 40.2428 0 42.1273V42.222L0.00607757 42.3704C0.0528355 43.0143 0.16396 43.6514 0.33765 44.2715C0.777418 45.8072 1.53532 47.2245 2.55826 48.4241C5.11651 51.4557 9.8254 53.9694 18.2515 53.9694Z" fill="#9882AC"/>
</svg>
