<svg width="90" height="72" viewBox="0 0 90 72" fill="none" xmlns="http://www.w3.org/2000/svg">
<path d="M15.3228 35.5H35.7532V34.1054C35.7532 32.2036 34.8168 30.6923 32.944 29.5715C31.0713 28.4507 28.6026 27.8912 25.538 27.8929C22.4735 27.8929 20.0048 28.4533 18.132 29.574C16.2592 30.6948 15.3228 32.2053 15.3228 34.1054V35.5ZM25.538 25.3571C26.9426 25.3571 28.1455 24.8601 29.1465 23.8661C30.1476 22.8721 30.6473 21.6787 30.6456 20.2857C30.6456 18.8911 30.1451 17.6968 29.144 16.7027C28.1429 15.7087 26.9409 15.2126 25.538 15.2143C24.1334 15.2143 22.9306 15.7113 21.9295 16.7053C20.9284 17.6993 20.4287 18.8928 20.4304 20.2857C20.4304 21.6804 20.931 22.8747 21.9321 23.8687C22.9331 24.8627 24.1351 25.3588 25.538 25.3571ZM5.10761 45.6429C3.70302 45.6429 2.50018 45.1459 1.49909 44.1519C0.497995 43.1579 -0.0016982 41.9644 4.33583e-06 40.5714V10.1429C4.33583e-06 8.74821 0.500549 7.55389 1.50164 6.55989C2.50273 5.56589 3.70472 5.06974 5.10761 5.07143H13.1521L17.8766 0H33.1994L37.924 5.07143H45.9684C47.373 5.07143 48.5759 5.56843 49.577 6.56243C50.578 7.55643 51.0777 8.7499 51.076 10.1429V40.5714C51.076 41.9661 50.5755 43.1604 49.5744 44.1544C48.5733 45.1484 47.3713 45.6445 45.9684 45.6429H5.10761ZM45.9684 40.5714V10.1429H35.6255L30.9649 5.07143H20.1112L15.4505 10.1429H5.10761V40.5714H45.9684Z" fill="#9882AC"/>
<path d="M48.1392 60.8571H78.7848L69.208 48.1786L61.5466 58.3214L55.8006 50.7143L48.1392 60.8571ZM43.0316 71C41.627 71 40.4241 70.503 39.423 69.509C38.422 68.515 37.9223 67.3215 37.924 65.9286V35.5C37.924 34.1054 38.4245 32.911 39.4256 31.917C40.4267 30.923 41.6287 30.4269 43.0316 30.4286H51.076L55.8006 25.3571H71.1234L75.8479 30.4286H83.8924C85.297 30.4286 86.4998 30.9256 87.5009 31.9196C88.502 32.9136 89.0017 34.107 89 35.5V65.9286C89 67.3232 88.4994 68.5175 87.4984 69.5115C86.4973 70.5055 85.2953 71.0017 83.8924 71H43.0316ZM83.8924 65.9286V35.5H73.5495L68.8888 30.4286H58.0351L53.3745 35.5H43.0316V65.9286H83.8924Z" fill="#9882AC"/>
</svg>
