<svg width="88" height="76" viewBox="0 0 88 76" fill="none" xmlns="http://www.w3.org/2000/svg">
<path d="M67.9766 33.9039C69.151 35.9595 70.0247 38.1007 70.5977 40.3275C71.1706 42.5544 71.4714 44.8526 71.5 47.2222V51.6331L44.8942 64.9326C44.3313 65.214 43.6687 65.214 43.1058 64.9326L16.5 51.6331C16.5 49.9201 16.5143 48.3214 16.543 46.8368C16.5716 45.3522 16.7005 43.9105 16.9297 42.5116C17.1589 41.1127 17.5026 39.7137 17.9609 38.3148C18.4193 36.9159 19.1068 35.4456 20.0234 33.9039L11 29.4074V54.5451C11.8307 54.8306 12.5755 55.2303 13.2344 55.7442C13.8932 56.2581 14.4805 56.8576 14.9961 57.5428C15.5117 58.228 15.8841 58.9703 16.1133 59.7697C16.3424 60.5691 16.4714 61.4113 16.5 62.2963V74C16.5 75.1046 15.6046 76 14.5 76H2C0.895431 76 0 75.1046 0 74V62.2963C0 61.4398 0.128906 60.6119 0.386719 59.8125C0.644531 59.0131 1.01693 58.2566 1.50391 57.5428C1.99089 56.8291 2.5638 56.2296 3.22266 55.7442C3.88151 55.2589 4.64062 54.8592 5.5 54.5451V26.6667L3.59221 25.716C2.1149 24.9798 2.1149 22.872 3.59221 22.1359L43.108 2.4445C43.6697 2.16458 44.3303 2.16458 44.892 2.44451L84.4078 22.1359C85.8851 22.872 85.8851 24.9798 84.4078 25.716L67.9766 33.9039ZM11 62.2963C11 61.554 10.7279 60.9117 10.1836 60.3692C9.63932 59.8268 8.99479 59.5556 8.25 59.5556C7.50521 59.5556 6.86068 59.8268 6.31641 60.3692C5.77214 60.9117 5.5 61.554 5.5 62.2963V70.5185H11V62.2963ZM15.8813 22.1359C14.404 22.872 14.404 24.9798 15.8813 25.716L43.108 39.2835C43.6697 39.5634 44.3303 39.5634 44.892 39.2835L72.1187 25.716C73.596 24.9798 73.596 22.872 72.1187 22.1359L44.892 8.56835C44.3303 8.28843 43.6697 8.28843 43.108 8.56835L15.8813 22.1359ZM64.892 48.8021C65.5709 48.4638 66.0056 47.7703 65.9767 47.0123C65.9105 45.2806 65.7034 43.6519 65.3555 42.1262C64.9258 40.2419 64.1667 38.3148 63.0781 36.3449L44.892 45.4073C44.3303 45.6873 43.6697 45.6873 43.108 45.4073L24.9219 36.3449C23.9766 38.0008 23.2604 39.7423 22.7734 41.5694C22.2865 43.3966 22.0286 45.2809 22 47.2222C22 47.852 22.3562 48.4275 22.9199 48.7084L43.108 58.7685C43.6697 59.0484 44.3303 59.0484 44.892 58.7685L64.892 48.8021Z" fill="#9882AC"/>
</svg>
